<svg width="87" height="87" viewBox="0 0 87 87" fill="none" xmlns="http://www.w3.org/2000/svg"><path d="M86.46 43.25l-43.23-.02L0 43.22l19.2-19.28 47.9.02 19.36 19.29z" fill="#D22856"/><path d="M38.34 39.04h-1.32l-2.7-4.4-2.74 4.41h-1.24l3.32-5.2-3.1-4.79h1.28l2.5 3.98 2.5-4h1.24L35 33.83l3.34 5.22zm1.41-10h1.1v5.78a41.83 41.83 0 01-.08 2.6h.05l5.55-8.4h1.28l.02 10h-1.09v-5.7a22.27 22.27 0 01.03-1.56 47.83 47.83 0 01.07-1.16h-.07l-5.55 8.43h-1.28l-.03-9.99zm13.72 9.97H52.3l-.02-8.97h-3.15v-1.02l7.45-.01v1.02h-3.13l.02 8.98z" fill="#fff"/></svg>