<svg width="105" height="105" viewBox="0 0 105 105" fill="none" xmlns="http://www.w3.org/2000/svg"><path d="M104.55 52.33l-52.27-.05L0 52.22l23.38-23.29 57.93.06 23.24 23.34z" fill="#D22856"/><path d="M45.8 46.05H44.5l-2.7-4.41-2.74 4.4H37.8l3.34-5.2-3.09-4.8h1.3l2.48 4 2.52-3.99h1.23l-3.1 4.76 3.32 5.24zm1.46-10l1.09.01-.01 5.78a41.5 41.5 0 01-.1 2.6h.06l5.58-8.37h1.28l-.02 10h-1.09l.01-5.71a22.56 22.56 0 01.05-1.56 47.41 47.41 0 01.07-1.16h-.06l-5.6 8.41h-1.28l.02-10zm13.68 10.03h-1.17l.01-8.97h-3.14v-1.03l7.45.01v1.03h-3.14l-.02 8.96z" fill="#fff"/></svg>