<svg width="20" height="19" viewBox="0 0 20 19" fill="none" xmlns="http://www.w3.org/2000/svg"><path d="M10 0C6.5 0 3 .6 1.6 1.8a6.4 6.4 0 00-1.6 4c0 .3 0 .5.2.6l.6.3 3.3-.3a.9.9 0 00.6-.2.8.8 0 00.3-.6V4a.8.8 0 01.2-.6 1 1 0 01.7-.2H14c.3 0 .5 0 .7.2l.3.6v1.6c0 .2 0 .4.2.6l.6.2 3.4.2a.9.9 0 00.6-.2.8.8 0 00.2-.5v-.2c0-1.4-.6-2.8-1.6-3.9C17.2.6 13.6 0 10 0zm0 10.3l-.9.3c-.3.1-.5.4-.6.7a1.5 1.5 0 00.4 1.7c.2.2.5.4.8.4h1l.7-.6a1.5 1.5 0 00-.2-2 1.7 1.7 0 00-1.2-.5zM8.8 6.8v-1a1 1 0 00-.3-.7 1 1 0 00-.7-.3 1 1 0 00-.8.3 1 1 0 00-.3.7v1L1 12.4A2 2 0 00.4 14v1.6c0 .4.2.8.5 1 .3.4.7.5 1.2.5h.4v1a1 1 0 00.3.7 1 1 0 00.7.3 1.1 1.1 0 00.8-.3 1 1 0 00.3-.7v-1h10.9v1c0 .3 0 .5.3.7.2.2.4.3.7.3.3 0 .6-.1.8-.3.2-.2.3-.4.3-.7v-1h.4a1.8 1.8 0 001.2-.4 1.6 1.6 0 00.5-1.1v-1.6a1.8 1.8 0 00-.7-1.5l-5.6-5.6v-1A1 1 0 0013 5a1 1 0 00-.8-.3 1 1 0 00-.7.3 1 1 0 00-.3.7v1H8.8zM10 8.7c.7 0 1.3.2 1.9.5.5.4 1 .9 1.2 1.4a3 3 0 01-.7 3.5c-.5.4-1 .7-1.7.9-.7 0-1.3 0-2-.2-.5-.3-1-.7-1.4-1.2a3 3 0 01.4-4c.6-.6 1.5-1 2.3-1z" fill="#D22856"/></svg>